<?xml version="1.0" encoding="utf-8"?>
<!-- Generator: Adobe Illustrator 22.0.1, SVG Export Plug-In . SVG Version: 6.00 Build 0)  -->
<svg version="1.1" id="Layer_1" xmlns="http://www.w3.org/2000/svg" xmlns:xlink="http://www.w3.org/1999/xlink" x="0px" y="0px"
	 viewBox="0 0 1200 1200" style="enable-background:new 0 0 1200 1200;" xml:space="preserve">
<style type="text/css">
	.st0{display:none;}
	.st1{display:inline;fill:#466F7C;stroke:#466F7C;}
	.st2{fill:#466F7C;stroke:#466F7C;}
	.st3{display:inline;}
	.st4{fill:#CEDADE;stroke:#ECEFF1;}
	.st5{fill:#89A6B0;stroke:#ECEFF1;}
	.st6{fill:#ACC0C7;stroke:#ECEFF1;}
</style>
<g>
	<g>
		<g>
			<path id="sonora" class="st4 state" d="M98.1,185.1l134,70.8l77.2,6.3l0.8,15.6l2.1,1.4l0.8,16.4l1.4,1.4l0.7,26.2l-1.5,17.1l-0.6,9.1l-3.6,1.5
				v24.7l0.8,5.7l-2.2,5.6l-0.7,9.9v4.3l-19.8-1.4l2.1,9.2l1.5,7.8l3.6,7.1l2.8,5.6l4.3,0.8l0.7,3.5l-2.1,1.4l2.1,1.5l0.8,1.4v7.1
				v10.7l-0.8,2.9l0.8,2.1l4.9,2.8l-3.5,9.2L281,490.4l-2.1,2.2l-1.4-4.3l-3.6,1.5v-5l-2.1-5l-0.7-2.1l-2.9-3.5l-2.8-0.8h-2.8
				l-7.8-2.1l-2.8-4.3l-1.5-2.8l1.5-3.6l-1.5-2.8l-1.4-2.8l-2.2-2.9l-2.8,1.5h-2.8l-2.8-2l-2.8-2.9l-2.9-2.1l-2.1-2.8l1.5-2.8
				l-0.8-2.9l-1.5-2.8l-2.1-2.8v-2.8l-1.5-2.8l-2.8-1.5l2.1-2.8h2.9l0.8-2.8l-2.9-2.8l-2.8-0.7l-2.8-0.8l-2.8-0.7l-2.8-1.4l-3.6-1.5
				L208,409l-2.9-2.2l-2.1-2.8l-2.1-2.8l-1.5-4.3l-0.7-2.8l-1.4-2.8l-2.9-2l-2.8-0.8l-2.8-2.1l-2.1-2.8l-0.7-2.8l-0.8-2.8l-1.5-2.8
				l-1.4-2.8l-0.7-2.9l-0.8-2.8l-2.8-2.8l-0.8-2.8l-0.7-2.8v-2.9l-0.7-2.8l-0.7-2.8l-1.5-2.8l-1.4-2.8l-2.2-2.8l-1.4-2.9l-1.5-2.8
				l-2-2.8l-1.5-2.8v-2.8l-0.8-2.8l-0.7-2.9l-1.4-2.8l-2.2-2.8l-0.6-2.8v-2.8l-0.8-2.9v-2.8l-0.7-2.8l-0.8-2.8l-2.1-2.8v-2.8v-2.9
				l-0.8-2.8l-1.5-2.8l-2-2.8l-0.8-2.8l-2.1-2.9v-2.8v-2.8v-2.8v-2.8l2.1-2.8v-2.9l0.8-2.8l0.7-2.8l-2.8-2.1l-2.9-2.2l-2.8-1.4
				l-2.8-0.7l-2.8-0.8l-2.8-0.7l-1.5-5.6l-1.4-2.9l-1.5-2.8l-2.8-1.5h-2.8h-2.9l-3.5,0.8h-2.8l-2.8-1.5l-2.8-2.1l-2.8-2.8l-2.9-2.9
				l-2.8-2.1l-2.1-2.8l-2.7-2.2l-2.8-1.4l-2.2-2.8l-2.8-2.8l-2.8-1.5l-3-0.8l1.5-2.8l2.1-2.8v-2.8l0.7-2.9v-2.8l2.2-2.8l3.5-3.6
				l2.8-0.7l2.1-2.8L98.1,185.1"/>
			<path id="chihuahua" class="st5 state" d="M307.9,463.5l-4.9-2.8l-0.8-2.1l0.8-2.9V445v-7.1l-0.8-1.4l-2.1-1.5l2.1-1.4l-0.7-3.5l-4.3-0.8l-2.8-5.6
				l-3.6-7.1l-1.5-7.8l-2.1-9.2l19.8,1.4v-4.3l0.7-9.9l2.2-5.6l-0.8-5.7v-24.7l3.6-1.5l0.6-9.1l1.5-17.1l-0.7-26.2l-1.4-1.4
				l-0.8-16.4l-2.1-1.4l-0.8-15.6l3.6,0.8l21.9,0.7l0.8-20.5l52.5,1.5l2.9,3.4l2.8,2.9l2.1,2.8l2.1,2.8l2.2,2.8l2.8,2.2l0.7,2.8
				l2.1,2.8l2.9,2l2.8,2.8l2.8,2.2l1.5,3.5l2.8,2.8l2,2.8l1.5,2.8l2.8,2.9l2.8,2.1l2.8,2.1l2.8,2.1l2.9,1.4l2.8,2.2l2.8,2.8l0.7,2.8
				l1.4,2.8v2.8l0.8,2.9l1.5,2.8l0.7,2.8l2.1,2.8l1.5,2.8l0.6,2.8l-0.6,2.9l0.6,2.8l0.8,2.8l0.7,2.8l0.8,2.8l1.4,2.9l1.5,2.8
				l2.1,2.8l3.6,2.8l2.9-0.7l2.1,2.8l2.8,2.1l2.8,2.8l2.8,1.5l2.9,0.7l3.6,1.5l1.4,2.8l2.8,1.5l2.9,0.7l2.8,2.1l2.1,2.8l2.8,1.5
				l2.9,0.6l2.8,0.8l2.8,0.7l0.8,2.2L475.2,428l7.9,56l-2.8-1.5l-2.8-0.6l-2.8-2.8l-2.8-2.2h-2.9l-2.8-0.7l-2.8,0.7l-2.8,1.5
				l-1.5,2.8l-0.8,2.8l-2,2.8l-0.8,2.8l-1.5,2.9l-2.1,2.8l-2.1,2.8h-2.8l-2.9-2.1l-2.1-2.9l-2.8-1.4h-2.8l-3.5,0.7l-2.9-1.5
				l-2.8-0.7l-2.8,0.7h-2.8l-2.8,0.8l-2.8-0.8l-2.9-1.5l-2.8-3.5l-2.1-2.8l-2.9-1.4l-2.8-0.8l-2.8-0.7l-2.8-2.8l-2.8-2.1h-2.8
				l-2.9,0.7l-2.8,0.7l-1.4,2.8v2.8v2.9v2.8l-2.1,2.8l-2.8,0.8l-2.8,1.4l-2.2,2.9v2.8l0.8,2.8v2.8l-2.1,2.8l-2.2,2.9v2.8l0.8,3.5
				v2.8l-1.4,2.8l-1.5,2.8l-2.8,1.5l-3.6,0.8l-2.8-0.8l-3.5-0.7h-2.9h-2.8l-1.4-2.8v-2.8v-2.9l-2.9-2.1l-2.8-2.1v-3.6l1.5-2.9
				l-2.8-2.1l-2.9-1.4h-2.8l-2.8-0.8l-1.5-2.8v-2.9v-2.8l-0.7-2.8v-2.8l0.7-2.8v-2.9l-1.4-2.8l-1.5-2.8l-0.8-2.8l-2.1-2.8l-1.5-2.8
				l-2.8-2.1h-2.8h-2.8h-2.8l-2.8-2.1L307.9,463.5"/>
			<path id="coahuila" class="st6 state" d="M578.7,575.5l8.5,10.7h9.9l-0.7-27l3.5-4.2l2.8-1.5h2.8h2.9h2.8l2.8,0.7l3.6,0.8l3.5,0.6l2.8-0.6l-0.7-2.9
				l-3.6-1.4l-2.8-1.5l-2.8-1.4l-2.8-1.5l-2.8-2.8l-2.9-2.8l-2.1-2.8l-2.1-2.9l-1.5-2.8l-1.5-2.9l-4.2-3.5l-0.7-2.8v-2.8l-0.8-2.9
				l-1.5-2.8v-2.8l-2.1-2.8l-2.8-0.8l-2.8-0.7l-3.8-8.6l4.4-2.6l7.9-8.5l3.5-1.5h2.8l2.9-0.7l2.1-2.9l2.8-2.1l1.5-2.8l1.4-2.8
				l-3.6-5l-5.8-5.1l-4.1,3.8l-0.7-8.5l8.5-7l2.8-0.8l2.8-1.4l2.1-2.8l-0.7-2.9l1.5-2.8l2.8-2.8l2.1-2.8h2.8l2.8,1.4l2.9,0.8
				l2.8-2.1l2.8-2.1l1.5-2.9v-2.8l-1.5-2.8l-1.5-2.8l-1.4-2.8l-2.8-2.9l-5-2.1l-2.1-2.8l-1.5-2.8l-1.5-2.9l-1.4-2.8l-1.5-2.8
				l-1.4-2.8l-2.8-2v-2.9l-0.7-2.8l-2.2-2.8l-1.4-2.8l-1.5-2.8l-0.7-2.8l-1.4-2.9l-0.8-2.8l-0.7-2.8l-2.8-2.8l-2.8-2.8l-2.2-2.9
				l-2.8-2.8l-2.8-2.8l-2.8-1.5l-2.8-0.7l-2.9-1.5l-1.4-2.8l-2.8-2.1l-2.1-2.9l-2.8-1.4h-2.8l-3.6-1.5h-2.8h-3.5h-3.6h-2.9h-2.8
				l-2.8-1.4l-2.8-0.8l-2.8,2.1l-2.9,1.5l-2.8-0.8l-2.8-0.7l-2.8,0.7l-2.7,2.1l-2.2,2.9l-0.6,2.8l-0.8,2.8v2.8l-0.7,2.8l-1.5,2.8
				l-0.7,2.9l-2.9,2.8l-0.6,2.8l-1.5,2.8l-2.1,2.8l-2.9,1.5l-1.4,1.5L475.2,428l7.9,56l2.8,1.5l2.2,2.8l2,2.8l2.8,1.5l2.2,2.8
				l2.1,2.8l1.5,2.8v3.6l-0.7,2.8l-0.8,2.9l-0.7,2.8l-0.7,2.8l-0.7,3.5l0.7,2.8l0.7,3.6v2.8l-1.4,2.8l-2.2,2.9l-2.1,2.8l-0.8,2.8
				l-1.4,2.8l-0.7,2.8v2.8l1.5,2.9l2.1,4.2l2.8,2.2l2.1,2.8l0.7,2.8l2.8,2.8l2.9,1.5l2.8,0.7l2.8,1.4l3.6,1.5h2.8l2.8-2.1l1.5-2.9
				l1.5-2.8v-2.8l2.1-2.8l2.8-0.8l2.8-1.5l2.9-0.6h2.8h2.8h2.8l2.8,1.4l2.9,1.5l3.4,0.7l2.9,1.4l2.8,1.5l1.4,2.8l2.2,2.8l2.8,2.2
				l3.5,1.4l2.8,0.7l0.8,2.8l2,2.8h2.9l2.8-0.7L578.7,575.5"/>
			<path id="sinaloa" class="st6 state" d="M349.7,525.8l-1.4-2.8v-2.8v-2.9l-2.9-2.1l-2.8-2.1v-3.6l1.5-2.9l-2.8-2.1l-2.9-1.4h-2.8l-2.8-0.8l-1.5-2.8
				v-2.9v-2.8l-0.7-2.8v-2.8l0.7-2.8v-2.9l-1.4-2.8l-1.5-2.8l-0.8-2.8l-2.1-2.8l-1.5-2.8l-2.8-2.1h-2.8h-2.8h-2.8l-2.8-2.1l-2.2-0.7
				l-3.5,9.2L281,490.4l-2.1,2.2l-1.4,2.8h-2.8h-2.9l-0.6,2.8l-0.8,2.8l-1.5,2.8l-1.4,2.9l-2.1,2.8l0.7,2.8l0.8,2.8v2.8v2.8l3.5,1.5
				l2.8,0.7l2.8-0.7h2.8h2.9l2.8,1.5l2.8,2.1l2.8,2.8l3.6,2.8l1.5,2.9l1.4,2.8l2.9,2.8l2.8,1.4l2.8,2.2l1.5,2.8l-0.8,2.8l2.1,2.8
				l1.5,2.9l2.1,2.8l0.8,2.8l1.5,2.8h2.8l2.8-0.8l1.5,3.6v2.9l-1.5,2.8l2.8,2.1l2.8,2.1l2.1,2.9l2.8,1.4h2.8l2.8,2.1l2.2,2.8
				l-3.6,1.4l-2.9-0.6l-2.8-1.5l0.8,2.8l2.8,2.1l2.9,1.4l2.8,2.2l2.8,1.4l2.1,2.8l1.5,2.8l0.8,2.9v2.8l-0.8,2.8l2.8,0.7l2.8,2.1
				l2.1,2.8l0.7,2.9l0.7,2.8l2.2,2.8l0.6,2.8l1.5,2.8l2.1,2.8l2.9,4.3l2.8,3.5l0.7,2.8l1.4,2.9l2.8,1.4l2.2,2.8l2.8,1.5l2.8,2.1
				l2.8,2.8l2.2,2.9l1.4,2.8l0.7,2.8l2.8,1.5l2.9,2.1l2.8,0.8l2.8,1.4l2.8,0.7l2.8,2.2l2.2,2.8l1.4-2.8v-2.9l-0.8-2.8v-2.8v-2.8
				l0.8-2.8l2.1-2.9l2.1-2.8l-2.8-2.8l-2.8-2.1l-1.5-2.8l-2.8-2.9l-2.2-3.5l-0.6-2.8l-0.8-3.6l-2.1-2.8l-1.5-2.8l-0.8-3.5v-2.8
				l-0.7-2.8v-2.9l-1.4-2.8l-0.8-2.8l-0.7-2.8l-0.8-2.8l-1.4-2.9l-1.5-2.8l-2.1-2.8l-2.8-2.8l-2.9-2.1l-2.8,1.4l-2.1,2.8l-2.8,0.8
				l-2.9-1.4l-1.4-2.9l-0.8-2.8v-2.8v-2.8l-0.7-2.8l-1.4-2.9l-1.5-2.8l-2.1-2.8l-2.9-2.8l-2.1-2.8l-2.1-2.8l-0.7-2.9l-1.5-2.8
				l-2.1-3.6l-0.7-2.8l-0.7-3.5v-2.8l1.4-2.8V538v-2.9v-2.8l-0.7-2.8l0.7-2.8L349.7,525.8"/>
			<path id="nuevo-leon" class="st5 state" d="M597.1,586.1l-0.7-27l3.5-4.2l2.8-1.5h2.8h2.9h2.8l2.8,0.7l3.6,0.8l3.5,0.6l2.8-0.6l-0.7-2.9l-3.6-1.4
				l-2.8-1.5l-2.8-1.4l-2.8-1.5l-2.8-2.8l-2.9-2.8l-2.1-2.8l-2.1-2.9l-1.5-2.8l-1.5-2.9l-4.2-3.5l-0.7-2.8v-2.8l-0.8-2.9l-1.5-2.8
				v-2.8l-2.1-2.8l-2.8-0.8l-2.8-0.7l-3.8-8.6l4.4-2.6l7.9-8.5l3.5-1.5h2.8l2.9-0.7l2.1-2.9l2.8-2.1l1.5-2.8l1.4-2.8l-3.6-5
				l-5.8-5.1l-4.1,3.8l-0.7-8.5l8.5-7l2.8-0.8l2.8-1.4l2.1-2.8l-0.7-2.9l1.5-2.8l2.8-2.8l2-2.8h2.8l2.8,1.4l2.9,0.8l2.8-2.1l2.8-2.1
				l1.5-2.9l4,3.3l-2.8,2.1l-2.8,2.1l-0.7,2.8l-0.8,2.8l0.8,2.8l2.8,1.5l2.1,2.8l0.7,2.8v2.8l1.5,2.9l1.5,2.8v2.8v2.8l-2.9,2.2
				l0.7,2.8l2.8,2.8v2.8l0.8,2.8l2.8,1.5l2.9,1.5l2.8,2v2.8l0.7,2.8v2.8l2.1,2.9l2.7,2.1l2.8,1.5l2.2,2.8l3.5,1.4l2.8,1.5l2.8,2.1
				l2.8,1.5l2.8,0.8l2.9,0.6h2.8l2.8,0.8l2.2,2.8l0.6,2.9v2.8v2.8l-0.6,2.8v2.8v2.9v2.8l3.4,1.4l-0.6,3.5l-1.5,2.8l-2.1,2.9
				l-2.9,2.8l-2.1,2.8l-2.8,2.1h-2.8l-3.6-0.7h-2.8l-2.9,1.4l-1.4,2.8l-1.5,2.9l-0.7,2.8v2.8v2.8l-0.7,2.8l-0.7,2.8h-3.6l-2.8,0.8
				h-2.8l-2.8,0.7l-2.8,2.1l-1.5,2.9l-2.8,0.6l-2.1,2.9l2.1,2.8l2.1,2.8l0.7,2.8v2.8v2.8v3.6l0.7,5.7l2.8,2.1l2.2,2.8l-1.5,2.9
				l-2.8,2.1l-2.8,0.7l-2.8,0.8l-2.2,2.8l-0.7,2.8l-0.7,2.8l-0.7,3.5v2.8l-2.2,2.8h-2.8L626,637l-2.8,0.6l-2.1,2.9l2.1,2.8l-1.4,2.8
				l-2.9-0.7l-2.8-0.8l-1.4,2.8l-2.9,0.8l-1.4-3.6v-2.8l-0.8-2.8l0.8-2.8l0.6-3.5l-1.4-5v-2.8V622l-1.5-2.8l-0.6-2.8l-2.2-2.9
				l-0.7-2.8v-3.5l1.5-3.6v-2.8l-0.8-2.8l-0.7-2.8l-2.8-2.9l-4.3-4.2L597.1,586.1"/>
			<path id="durango" class="st4 state" d="M482.8,484.1l-2.8-1.4l-2.8-0.7l-2.9-2.8l-2.8-2.2h-2.8l-2.8-0.6l-2.8,0.6l-2.9,1.5l-1.4,2.8l-0.8,2.8
				l-2.1,2.8l-0.8,2.9l-1.5,2.8l-2.1,2.8l-2.2,2.8h-2.8l-2.8-2.1l-2.1-2.8l-2.9-1.5h-2.8l-3.5,0.7l-2.8-1.5l-2.8-0.7l-2.8,0.7h-2.8
				l-2.9,0.8l-2.8-0.8l-2.8-1.4l-2.8-3.5l-2.2-2.8l-2.8-1.5l-2.8-0.8l-2.8-0.7l-2.8-2.8l-2.9-2.1h-2.8l-2.8,0.8l-2.8,0.6l-1.5,2.8
				v2.9v2.8v2.8l-2.1,2.8l-2.8,0.8l-2.9,1.5l-2.1,2.8v2.8l0.8,2.8v2.8l-2.2,2.9l-2.1,2.8v2.8l0.8,3.5v2.8l-1.5,2.8l-1.4,2.8
				l-2.9,1.5l-3.6,0.8l-2.8-0.8l-3.5-0.7h-2.8l-2.6-0.2l-2.1,0.8l-0.7,2.8l0.7,2.8v2.8v2.9v2.8l-1.4,2.8v2.8l0.7,3.5l0.7,2.8
				l2.1,3.6l1.5,2.8l0.7,2.9l2.1,2.8l2.1,2.8l2.9,2.8l2.1,2.8l1.5,2.8l1.4,2.9l0.7,2.8v2.8v2.8l0.8,2.8l1.4,2.9l2.9,1.4l2.8-0.8
				l2.1-2.8l2.8-1.4l2.9,2.1l2.8,2.8l2.1,2.8l1.5,2.8l1.4,2.9l0.8,2.8l0.7,2.8l0.8,2.8l1.4,2.8v2.9l0.7,2.8v2.8l0.8,3.5l1.5,2.8
				l2,2.8l0.8,3.6l0.6,2.8l2.2,3.5l2.8,2.9l1.5,2.8l2.8,2.1l2.8,2.8l-0.3,1.9h5.6l9.9,5l0.8,6.3l-3.6,3.6l-2.8,2.8l-0.7,2.9l5.7,2.1
				l2.8-2.8l6.3-2.1l10.7,0.7l1.5,2.8l0.6,2.8l1.5,0.8l2.1,0.7l2.1-1.5l2.1,0.8l0.7,6.3l3.6-7.7l1.5-20.6l1.4-16.3l6.3-8.5l8.5-4.3
				l-0.7-2.1l-2.1-4.3l2.8-12l19.8-18.4l20.6,2.1l13.4-4.3l0.8-19.8l-7.1-8.5l-3.2-0.5v2.8l-1.5,2.8l-1.5,2.9l-2.8,2h-2.8l-3.6-1.5
				l-2.8-1.4l-2.8-0.7l-2.9-1.5l-2.8-2.8l-0.7-2.8l-2.1-2.8l-2.8-2.2l-2.1-4.2l-1.5-2.9v-2.8l0.7-2.8l1.4-2.8l0.8-2.8l2.1-2.8
				l2.2-2.9l1.4-2.8v-2.8l-0.7-3.6l-0.7-2.8l0.7-3.5l0.7-2.8l0.7-2.8l0.8-2.9l0.7-2.8V501l-1.5-2.8l-2-2.8l-2.2-2.8l-2.8-1.5
				l-2.1-2.8l-2.2-2.8L482.8,484.1"/>
			<path id="nayarit" class="st6 state" d="M461.6,739l-3.6-0.8l-2.8-1.4l-2.1-2.9h-2.9l-0.8,2.9v2.8l2.9,2.8l1.4,2.8l0.8,2.8l-2.1,2.9l-2.9,2.1
				l-0.6,3.5v2.8l0.6,2.8l-0.6,2.8l-2.8,1.5h-2.9l-2.1-2.8v-2.8V758v-2.8l-1.5-2.8l-2.8-2l-2.8-2.2l-2.8-2.1h-2.8l-2.9,1.5l-2,2.8
				l-1.5,2.8l-2.8,1.5l-2.8,0.6l-2.8,0.8l-2.2,2.8l-1.4,2.8l-2.8,0.7l-2.9-1.4h-2.8l-1.4-3.5l1.4-2.8l2.2-2.9l2.1-2.8l2.8-2.8
				l1.5-2.8l0.8-2.8l0.6-3.6v-2.9l0.8-2.8l0.7-2.8l-0.7-2.8l-2.1-2.8l-2.8-1.5l-2.9-3.5l-2.1-2.8l-0.8-2.8l-1.4-3.6l-1.5-2.8
				l-0.7-2.9l-1.4-2.8l-0.8-2.8v-2.8v-2.8v-2.8l-0.7-2.9l-0.8-2.8l-0.7-2.8l2.9-0.7l2.8-1.4l-0.8-2.8l3.8-2.6l2.2,2.8l1.4-2.8v-2.9
				l-0.8-2.8v-2.8v-2.8l0.8-2.8l2.1-2.9l1.9-0.9h5.6l9.9,5l0.8,6.3l-3.6,3.6l-2.8,2.8l-0.7,2.9l5.7,2l2.8-2.8l6.3-2.1l10.7,0.7
				l1.5,2.8l0.6,2.8l1.5,0.8l2.1,0.7l2.1-1.5l2.1,0.8l0.7,6.3l-0.7,3.6l-3.6,10l6.4,10.5l0.7,2.9l-2.1,11.3l7.1,7.9l-0.8,7.1
				L461.6,739"/>
			<path id="jalisco" class="st5 state" d="M567.2,712.7l-2.8-2.9l-1.5-2.8l-2.8-2.1h-2.8l-3.5,1.5l-3.6,1.4l-2.8,2l-2.1,3.6l-2.8,2.9l-2.8,1.4
				l-2.8,0.7h-2.8H531l-2.8-0.7l-2.8-1.4l-2.8-0.8h-2.8l-2.9,0.8l-2.1,2.8v2.8l1.5,2.8l0.7,2.8l-1.4,2.9l-1.5,2.8l-5.6,4.2l-2.8,2.1
				l-2.9,0.8h-2.8H497l-2.8,0.6h-2.8l-2.9-0.6l-3.6-0.8l-2.8,0.8l-2.8,1.4l-2.8,0.7l-2.8-0.7l-2.9-2.8l-1.4-2.8v-2.8l0.8-2.8
				l1.4-2.9l1.5-2.8l0.7-2.8l1.4-2.8l0.8-2.8l1.5-2.9l1.4-2.8h2.8l2.9,1.5h2.8l2.8-2.2V707l-1.5-2.8l2.1-2.8h2.8h2.8l0.8-2.8
				l1.5-2.8l0.6-2.9l0.8-2.8v-2.8l-1.4-2.8l-2.9-2.1l-2.8-0.7l-2.8,1.4l-2.8,2.8l-1.5,2.9l-0.8,2.8l-2.8,2.1l-2.8,0.7l-0.7-2.8
				l-0.8-2.8v-2.9l0.8-2.8l1.5-2.8l0.7-2.8l-0.7-2.8l-2.8-1.5l-2.9,2.2l-0.7,2.8l-0.7,2.8v2.8l-1.5,2.8h-2.8v-2.8v-2.8l0.7-2.8
				l0.8-2.8l2.1-2.9l2.8-2.8l-0.7-2.8l-2.1-2.8l-2.8-0.8l-2.8,0.8l-2.9,2v2.8l0.8,2.9l2.1,2.8l1.4,2.8l-0.6,2.8l-2.9,1.5l-2.8,1.4
				l-2.8,1.5l-3.6,1.4l-0.7,3.6l-3.6,10l6.4,10.5l0.7,2.9l-2.1,11.3l7.1,7.9l-0.8,7.1h-0.7l-3.6-0.8l-2.8-1.4l-2.1-2.9h-2.9
				l-0.8,2.9v2.8l2.9,2.8l1.4,2.8l0.8,2.8l-2.1,2.9l-2.9,2.1l-0.6,3.5v2.8l0.6,2.8l-0.6,2.8l-2.8,1.5h-2.9l-2.1-2.8v-2.8V758v-2.8
				l-1.5-2.8l-2.8-2l-2.8-2.2l-2.8-2.1h-2.8l-2.9,1.5l-2.1,2.8l-1.5,2.8l-2.8,1.5l-2.8,0.6l-2.8,0.8l-2.2,2.8l-1.4,2.8l-1.5,2.1
				l1.5,2.8v2.8l-2.8,1.5l-2.9,0.8l-2.8,0.6h-2.8l-2.8,0.8l-2.8,0.7l-2.9,2.8l0.8,2.8l1.5,2.8l2.8,2.9l0.7,2.8l-0.7,2.8v2.8l2.1,2.8
				l2.9,1.5l2.8,2.8l1.4,2.8l1.5,2.9l1.5,2.8l2.1,2.8l2,3.6l2.2,2.8l0.7,2.8v5l2.8,1.4l3.6,1.5l2.8,1.5l2.8,2.8l2.8,0.8l1.5-2.9
				l-0.8-2.1l2.8-0.7h2.9l3.6,0.7l3.5,0.8l2.8,0.7h3.6l2.8-0.7l2.8-0.8l2.8-1.5l2.9-2.1l2.8-1.5l2.8,0.7l2.8,0.8h3.5l2.8-0.8
				l2.8,0.8l0.8,2.8l1.5,2.8l1.4,3.5v2.8v2.9l-1.4,2.8l0.7,2.8h2.8l2.8-1.5h2.8l2.8,2.9l2.9,0.7l2.8-1.4l2.8-2.8l2.8-2.8l2.8-2.9
				l3.6-1.4h2.9h2.8l2.8-1.5l2.8-2.1l1.5-2.8l0.7-2.9l-0.7-2.8h-2.8h-2.9l-2.8-1.4l-1.4-2.9l-0.8-2.8v-2.8l2.1-2.8l0.7-2.8l-2.8-2.8
				l-2.8-1.5l-2.9-1.5h-2.8h-2.8l-2.8-0.6l-2.8-2.2v-2.8l1.4-2.8l2.8-2.1h2.9h2.8h2.8l2.8,0.7h2.8l1.5-2.8l0.8-2.8h2.8h2.8l2.8,0.8
				l2.9-2.2l1.4-2.8l2.8-1.5h2.9l2.8-2.1l2.8-0.8l2.8,0.8l2.8-2.1l2.1-2.8l1.4-3.5l-0.6-2.9l-2.2-2.8l-2.1-2.8l0.6-2.8l2.9-2.2
				l2.8-2.8l2.8-2.8l2.1-2.8l1.5-2.8l2.8-2.8l3.5-3.5l2.2-2.9l0.6-2.8l-0.6-2.8l-1.5-2.8l-2.8-2.8v-2.8l1.4-2.9l1.5-2.8l2.8-2.8
				L567.2,712.7"/>
			<path class="st6" d="M553.2,706.4l-3.1,1.4l-2.8,2l-2.1,3.6l-2.8,2.9l-2.8,1.4l-2.8,0.7h-2.8H531l-2.8-0.7l-2.8-1.4l-2.8-0.8
				h-2.8l-2.9,0.8l-2.8,0.6l-2.8,0.8l-2.8-2.1l-2.2-2.8l-0.6-2.9l-0.8-2.8v-2.8l0.8-2.8l2-2.8l2.8-0.7l2.8-0.8h2.9l2.8-2l2.8-2.2
				l2.8-2.1l2.8-2.1l2.8-1.5l2.9-1.5l2.8,0.8l2.8,0.7l2.2,2.8l2.8,2.8l2.1,2.9l2.2,2.8l1.4,5.6L553.2,706.4"/>
			<path id="san-luis-potosi" class="st4 state" d="M555.1,683.7l-14.1-17l-0.8-3.6l-0.7-2.8V656l-2.2-2.1v-9.3l10.8-9.9l16.2-12l11.4-8.5l12.7-20.6l7.9-6.3
				l1.4,0.7l4.3,4.2l2.8,2.9l0.7,2.8l0.8,2.8v2.8l-1.5,3.6v3.5l0.7,2.8l2.2,2.9l0.6,2.8l1.5,2.8v2.8v2.8l1.4,5l-0.6,3.5l-0.8,2.8
				l0.8,2.8v2.8l1.4,3.6l2.9-0.8l1.4-2.8l2.8,0.8l2.9,0.7l1.4-2.8l2.8,2.1l-1.4,2.8v2.9l2.8-1.5l2.8-0.8l0.7,2.8l-2.8,1.5l1.4,2.8
				l2.8-1.5l2.9,0.8l1.4,2.8l-1.4,2.9l-2.9,0.6l-2.8,2.2l1.5,2.8l2.8,0.7l2.8,1.4l3.6,0.8l2.8,0.7l2.9,0.8l3.5-0.8l2.8,1.5l2.8,2.1
				l2.8,2.8l1.5,2.8l1.4,2.8l2.9,2.1l2.8,0.8h2.8h3.6h2.8h3.5l2.8-0.8l2.9-0.7h2.8l2.8,1.5l2.8,1.4l2.8,2.8l1.5,2.9v2.8l-1.5,2.8
				l-2.1,2.8l-0.8,2.8l-0.7,2.9v2.8v2.8l-0.8,2.8l-2.1,2.8l-2.8,2.1l-1.5,2.8l-2.8,2.1l-2.8,2.8l-0.8,2.9l1.5,2.8l0.8,2.8l-2.2,2.8
				l-2.8-2.1l-2.8-1.5l-2.8-0.7l-2.9-1.4l-1.4-2.8l-1.5-2.9l-1.4-2.8l-1.5-2.8l-2.8,0.7l-2.8,1.4l-2.1,2.9l-2.8,2.8l-2.8-1.5l-2.8-2
				l-7.6,3l-4.3-1.4l-3.1-2.4l-2.8-0.7l-2.9-1.4l-2.8-1.5l-2.8-2.1l-2.8-1.5l-2.8,0.8l-1.5,2.8l-2.8,2.8l-2.8,1.5l-2.8-0.8l-3.5-0.7
				l-2.9-2.1l-2.1-2.8l-2.8-2.9l-2.1-2.8h-2.8h-2.8h-2.8h-2.8h-2.9h-2.8h-2.8l-2.8-1.4l1.4-2.9l1.5-2.8l2-2.8v-2.8v-2.8v-2.8
				l1.5-2.9V690l-1.5-2.8l1.5-2.8l2.1-2.8l-2.1-2.9l-2.8-2.8h-2.8l-2.9,2.2l-2.8,2.8l-2.8,2.1l-2.8,0.8L555.1,683.7"/>
			<path id="guanajuato" class="st6 state" d="M638.3,729.2l-4.3-1.4l-3.1-2.4l-2.8-0.7l-2.9-1.4l-2.8-1.5l-2.8-2.1l-2.8-1.5l-2.8,0.8l-1.5,2.8l-2.8,2.8
				l-2.8,1.5l-2.8-0.8l-3.5-0.7l-2.9-2.1l-2.1-2.8l-2.8-2.9l-2.1-2.8h-2.8h-2.8h-2.8h-2.8h-2.9h-2.8h-2.8l-2.8-1.4h-0.8l-0.7,2.1
				l-2.8,2.8l-1.5,2.8l-1.4,2.9v2.8l2.8,2.8l1.5,2.8l0.6,2.8l-0.6,2.8l-2.2,2.9l-3.5,3.5l-2.8,2.8l-1.5,2.8l-2.1,2.8l-2.8,2.8
				l-2.8,2.8l-2.9,2.2l-0.6,2.8l2,2.8l2.2,2.8l0.6,2.9l-1.4,3.5l-2.1,2.8l-2.8,2.1l1.6,3.1l2.8,1.4l2.2,2.8l2.8,2.2h2.8l3.5-0.8
				l2.8-2.1l0.8-2.9l2.8-1.4l2.8,2v2.8v2.9l0.7,2.8l1.5,2.8l2.8,2.1l2.8-0.8l0.8-2.8l2.8-0.6h2.8l2.8,0.6l2.9,0.8h2.8l2.8,2.1
				l2.8,2.2h2.8l2.9,0.7l2.8,0.7h2.8h2.8l2.8-1.4l2.1-2.8l2.8-1.5l2.8-0.8l1.5-2.8l-1.5-2.8l-2.8-2.1l-2.8-2.2l-2.8-2.8l-1.5-2.8
				l-1.5-2.8v-2.9v-2.8l-0.6-2.8l-1.5-2.8l0.7-2.8l2.1-2.8l2.8-1.5h2.9l2.8-0.7l2.1-2.8l2.8-2.8l2.9-1.5l2.8-2.8l2.1-2.8l2.8-0.8
				l2.9,0.8l2.8-1.5l2.8-2.8l-1.5-2.8l-0.8-2.8v-2.8L638.3,729.2"/>
			<path id="queretaro" class="st5 state" d="M678.7,739.9l-2.9,0.7L673,742h-2.8l-2.8,1.5l-2.8,1.5l-2.9,0.7h-2.8l-1.4,2.9l-2.1,2.8l-1.4,2.8l-2.8,2.8
				l-1.5,2.8l-0.8,2.9l-0.7,2.8v2.8l-0.8,2.8l-1.4,2.8l-2.8,2.1l-2.9,2.1l-2.8,2.8l-2.8,2.8v2.9l-1.4,2.8l-2.9,2.8l-2,2.8l-2.8,1.5
				H617l0.8-1.5l2.8-0.8l1.5-2.8l-1.5-2.8l-2.8-2l-2.8-2.2l-2.8-2.8l-1.5-2.8l-1.5-2.8v-2.9v-2.8l-0.6-2.8l-1.5-2.8l0.7-2.8l2.1-2.8
				l2.8-1.5h2.9l2.8-0.7l2-2.8l2.8-2.8l2.9-1.5l2.8-2.8l2.1-2.8l2.8-0.8l2.9,0.8l2.8-1.5l2.8-2.8l-1.5-2.8l-0.8-2.8v-2.8l-2.1-2.2
				l7.6-3l2.8,2.1l2.8,1.5l2.8-2.8l2.1-2.9l2.8-1.4l2.8-0.7l1.5,2.8l1.4,2.8l1.5,2.9l1.4,2.8l2.9,1.4l2.8,0.7l2.8,1.5l2.8,2.1
				L678.7,739.9"/>
			<path id="hidalgo" class="st4 state" d="M678.7,739.9l-2.9,0.7L673,742h-2.8l-2.8,1.5l-2.8,1.5l-2.9,0.7h-2.8l-1.4,2.9l-2.1,2.8l-1.4,2.8l-2.8,2.8
				l-1.5,2.8l-0.8,2.9l-0.7,2.8v2.8l-0.8,2.8l-1.4,2.8l-2.8,2.1l-2.9,2.1l-2.8,2.8l-2.8,2.8l1.5,0.7l3.6,0.8l2.8,1.5l2,2.8l2.8,0.7
				l2.9-0.7l2.8,2.1l1.4,2.8l0.8,2.8l1.5,2.9l2.8,2.1h2.8l3.5-1.5l-0.7-2.8l1.5-2.8h2.8l2.8,1.5l1.5,2.8l0.7,2.8l1.4,2.8l2.9,0.7
				l2.8-2l2.8-0.8h2.8l1.5,2.8v2.8l0.8,2.8l2.1,2.9l2.8,0.7l2.8,1.5l2.9-1.5l2.8-2.8l1.4-2.8v-2.8v-2.8l1.5-2.9l0.8-2.8l0.7-2.8
				l0.7-2.8l1.5-2.8l0.7-2.8l0.8-2.9l1.4-2.8l2.1-2.8l2.1-2.8l2.1-2.8l2.2-3.6V766v-2.8l-2.2-2.8l-2.8-0.7l-2.1,2.9v2.8l-2.2,2.8
				l-1.4,2.8l-2.8,1.5l-2.9,0.6h-2.8h-2.8h-2.8l-2.1-2.8l1.5-2.8l2.1-3.5l2.9-1.4l2.8-1.5l2.8-2.8l2.1-2.8l0.7-2.9l-1.4-2.8
				l-0.7-2.8l-0.8-2.8l-2.1-2.8l-2.9-2.2l-2.8-1.4l-0.8-2.8V732l-0.6-2.8v-2.8l-0.8-2.8v-2.8v-2.9L695,715l-3.2-0.1l-2.1,2.8
				l-2.8,2.1l-1.5,2.8l-2.8,2.1l-2.8,2.8l-0.8,2.9l1.5,2.8l0.8,2.8l-2.2,2.8L678.7,739.9"/>
			<path id="michoacan" class="st4 state" d="M628.4,797.2l-1.5,3.6l-0.7,3.5l-0.7,2.9v2.8l-1.5,2.8l-1.4,2.8l-2.2,2.8l-0.7,2.8l-0.7,2.9v2.8l0.7,2.8v2.8
				v2.8l-0.7,3.6l-1.5,2.9l-1.5,2.8l-1.4,3.5l-2.1,2.8l-1.4,2.8l-2.8,1.5l-2.9,2.8v3.6l0.7,2.8l1.5,2.8l0.8,2.8l-1.5,2.9h-2.8h-2.8
				h-2.9l-2.8-2.2H593l-2.8-2.1l-2.8-1.5l-2.9-0.8l-2.8,1.5l-2.8-0.7l-2.8-0.8h-2.8l-2.8,0.8l-2.9,2.1l-2.8,0.7l-2.8-2.8l-2.8-1.4
				l-2.8-0.8l-2.9,0.8h-2.8l-2.8,0.6l-1.5,2.9v2.8l1.5,2.8l0.7,2.8l-1.5,2.8l-2.8,1.5l-2.8,1.4l-2.8,0.8v2.8v2.9v2.8v2.8h-2.9
				l-2.8-0.8l-2.8-1.4h-3.5l-2.8-0.7l-2.8-1.5l-2.9-0.8H515h-2.8h-2.8l-2.8-1.4l-2.9-2.8l-2.8-1.5l-2.8-0.7l-2.8-0.8l-2.8-0.6
				l-2.8-0.8l-2.9-2.1l-2.8-1.4l-1.4-2.8l-1.5-2.8l-1.5-2.9l-2.1-2.8l0.8-2.8l0.6-2.8l-0.6-2.8l2.1-5.7l0.8-2.8l0.7-2.8l1.9-1.7
				l2.8-1.5h2.8l2.8,2.9l2.9,0.7l2.8-1.4l2.8-2.8l2.8-2.8l2.8-2.9l3.6-1.4h2.9h2.8l2.8-1.5l2.8-2.1l1.5-2.8l0.7-2.9l-0.7-2.8h-2.8
				h-2.9l-2.8-1.4l-1.4-2.9l-0.8-2.8v-2.8l2.1-2.8l0.7-2.8l-2.8-2.8l-2.8-1.5l-2.9-1.5h-2.8h-2.8l-2.8-0.6l-2.8-2.2v-2.8l1.4-2.8
				l2.8-2.1h2.9h2.8h2.8l2.8,0.7h2.8l1.5-2.8l0.8-2.8h2.8h2.8l2.8,0.8l2.9-2.2l1.4-2.8l2.8-1.5h2.9l2.8-2.1l2.8-0.8l2.8,0.8l1.6,3.1
				l2.8,1.4l2.2,2.8l2.8,2.2h2.8l3.5-0.8l2.8-2l0.8-2.9l2.8-1.4l2.8,2.1v2.8v2.9l0.7,2.8l1.5,2.8l2.8,2.1l2.8-0.8l0.8-2.8l2.8-0.6
				h2.8l2.8,0.6l2.9,0.8h2.8l2.8,2l2.8,2.2h2.8l2.9,0.7l2.8,0.7h2.8h2.8l2.8-1.4l2.1-2.8h2.1h8.6l2.8-1.5V797.2"/>
			<path id="colima" class="st6 state" d="M481.6,847.6l-0.7,2.8l-0.8,2.8l-2.1,5.7l0.6,2.8l-0.6,2.8l-0.7,2.9l-2.1-2.9l-2.2-2.8l-2.1-2.8l-2.2-2.9
				L466,854l-2.8-1.5l-2.8-1.4l-5.7-3.5l-2.8-2.2l-2.8-2.8l-3.5-0.6l-2.8-2.2l-2.8-1.4H437l-2.8-1.5l-5.3-3.4l1.5-2.5l-0.8-2.1
				l2.8-0.7h2.9l3.6,0.7l3.5,0.8l2.8,0.7h3.6l2.8-0.7l2.8-0.8l2.8-1.5l2.9-2l2.8-1.5l2.8,0.7l2.8,0.8h3.5l2.8-0.8l2.8,0.8l0.8,2.8
				l1.5,2.8l1.4,3.5v2.8v2.9l-1.4,2.8l0.7,2.8h2.8L481.6,847.6"/>
			<path id="estado-de-mexico" class="st6 state" d="M691.4,814.3l-2-2.9l-0.8-2.8v-2.8l-1.5-2.8h-2.8l-2.8,0.8l-2.8,2.1l-2.9-0.7l-1.4-2.8l-0.7-2.8l-1.5-2.8
				l-2.8-1.5h-2.8l-1.5,2.8l0.7,2.8l-3.5,1.5h-2.8l-2.8-2.1l-1.5-2.9l-0.8-2.8l-1.4-2.8l-2.8-2.1l-2.9,0.7l-2.8-0.7l-2.1-2.8
				l-2.8-1.5l-3.6-0.8l-1.5-0.7v2.9l-1.4,2.8l-2.9,2.8l-2,2.8v2.1l-1.5,3.6l-0.7,3.5l-0.7,2.9v2.8l-1.5,2.8l-1.4,2.8l-2.2,2.8
				l-0.7,2.8l-0.7,2.9v2.8l0.7,2.8v2.8v2.8l-0.7,3.6l-1.5,2.9l-1.5,2.8l-1.4,3.5l-2.1,2.8l-1.4,2.8l0.7,2.1v2.9l1.4,2.8l1.5,2.8
				l1.4,2.8l1.5,2.8l2.8,0.7l3.6-0.7l2.8-2.8l2.9-2.8h2.8l3.5,0.7h2.8l2.1-2.8l1.5-2.9l2.8-2.1l2.8,0.7l2.9,0.8l3.4-1.5l2.2-2.8
				l2.1-2.8l2.8-2.8l0.8-2.9l0.7-2.8v-3.6l-0.7-2.8l-1.4-2.8v-3.5l2-2.8l2.8-2.8l2.2-2.9v-2.8l2.8-0.8l2,2.8l2.8,2.9v2.8v2.8v2.8
				l0.8,2.8v2.9v2.8l2.8,0.8l2.9,2.8l1.4,2.8l2.8,0.7l2.1-2.9l0.8-2.8l0.6-2.8l0.8-2.8v-2.8l-0.8-2.8l-0.6-2.9l-0.8-2.8v-2.8V820
				l-0.7-2.8l2-2.8H691.4"/>
			<path id="ciudad-de-mexico" class="st6 state" d="M676.6,841.2v-2.8v-2.9l-0.8-2.8v-2.8V827v-2.8l-2.8-2.9l-2.1-2.8l-2.8,0.8v2.8l-2.2,2.9l-2.8,2.8l-2.1,2.8
				v3.5l1.4,2.8l0.7,2.8v3.6l1.5-1.4l2.8-0.8l2.8,0.8h2.8L676.6,841.2"/>
			<path id="morelos" class="st4 state" d="M676.6,841.2l2.8,0.8l2.9,2.8l1.4,2.8l2.8,0.7l1.5,2.1v2.8v2.8l2,3.5l-0.6,2.9v2.8v2.8v2.8l-2.9,0.8
				l-2.8,1.5l-2.8,1.4l-2.8,2.8h-2.8l-2.2-2.8l-2.8-1.4l-2.8-2.2l-2.8-1.4l-2.9-2.9h-2.8l-2.8-1.4l-1.5-2.8l-0.6-2.9l0.6-2.1
				l2.2-2.8l2.1-2.8l2.8-2.8l0.8-2.9l0.3-2.7l1.8-1.5l2.8-0.8l2.8,0.8h2.8L676.6,841.2"/>
			<path id="tlaxcala" class="st6 state" d="M704.2,806.5v2.8l-1.4,2.8L700,815l-2.9,1.5l-2.8-1.5l-2.8-0.7H690l-2,2.8l0.7,2.8v2.8v2.8h1.4l2.9-2.1
				l2.8-0.8l2.8,2.2l2.1,2.8l2.1,2.8l2.8,2.1l2.8,2.8l2.8,1.5l2.9-1.5l2.8-0.6h2.8l2.8-1.5l2.8-2.8l2.8-1.5l2.9-1.4V825l-2.9-2.2
				l-2.8-2.8l-2.8-1.5l-2.8-1.4l-2.8-2.8l-2.8-2.1l-2.9-0.8l-2.8-2.1l-2.8-2.8H704.2"/>
			<path id="zacatecas" class="st6 state" d="M597.1,586.1h-9.9l-8.5-10.7l-2.8,0.7l-2.8,0.7h-2.9l-2-2.8l-0.8-2.8l-2.8-0.7l-3.5-1.4l-2.8-2.2l-2.2-2.8
				l-1.4-2.8l-2.8-1.5l-2.9-1.4l-3.4-0.7l-2.9-1.5l-2.8-1.4h-2.8h-2.8h-2.8l-2.9,0.6l-2.8,1.5l-2.8,0.8l1.2,3.3l7.1,8.5l-0.8,19.8
				l-13.4,4.3l-20.6-2.1L476.4,610l-2.8,12l2.1,4.3l0.7,2.1l-8.5,4.3l-6.3,8.5l-1.4,16.3l-1.5,20.6l-3.6,7.7l3.6-1.4l2.8-1.5
				l2.8-1.4l2.9-1.5l0.6-2.8l-1.4-2.8l-2.1-2.8l-0.8-2.9v-2.8l2.9-2.1l2.8-0.8l2.8,0.8l2.1,2.8l0.7,2.8l-2.8,2.8l-2.1,2.9l-0.8,2.8
				l-0.7,2.8v2.8v2.8h2.8l1.5-2.8v-2.8l0.7-2.8l0.7-2.8l2.9-2.2l2.8,1.5l0.7,2.8l-0.7,2.8l-1.5,2.8l-0.8,2.8v2.9l0.8,2.8l0.7,2.8
				l2.8-0.7l2.8-2.1l0.8-2.8l1.5-2.9l2.8-2.8l2.8-1.4l2.8,0.7l2.9,2.1l1.4,2.8v2.8l-0.8,2.8l-0.6,2.9l-1.5,2.8l-0.8,2.8h-2.8h-2.8
				l-2.1,2.8l1.5,2.8v2.8l-2.8,2.2h-2.8l-2.9-1.5h-2.8l-1.4,2.8l-1.5,2.9l-0.8,2.8l-1.4,2.8l-0.7,2.8l-1.5,2.8l-1.4,2.9l-0.8,2.8
				v2.8l1.4,2.8l2.9,2.8l2.8,0.7l2.8-0.7l2.8-1.4l2.8-0.8l3.6,0.8l2.9,0.6h2.8l2.8-0.6h2.8h2.8l2.9-0.8l2.8-2.1l5.6-4.2l1.5-2.8
				l1.4-2.9l-0.7-2.8l-1.5-2.8v-2.8l2.1-2.8l2.9-0.8h2.8l2.8,0.8l2.8,1.4l2.8,0.7h2.9h2.8l2.8-0.7l2.8-1.4l2.8-2.9l2.1-3.6l2.8-2.1
				l3.6-1.4l3.5-1.5h2.8l2.8,2.1l1.5,2.8l2.8,2.9h0.8l1.4-2.9l1.5-2.8l2.1-2.8v-2.8v-2.8v-2.8l1.5-2.9V690l-1.5-2.8l1.5-2.8l2.1-2.8
				l-2.1-2.9l-2.8-2.8h-2.8l-2.9,2.2l-2.8,2.8l-2.8,2.1l-2.8,0.8h-2.1l-14.1-17l-0.8-3.6l-0.7-2.8V656l-2.2-2v-9.3l10.8-9.9l16.2-12
				l11.4-8.5l12.7-20.6L597.1,586.1"/>
			<path id="tamaulipas" class="st6 state" d="M639,436.6l2.8,2.1l2.8,2.2l2.2,2.8l0.6,2.8l0.8,2.8l-2.1,2.8l0.8,2.9v2.8l0.6,2.8l1.5,2.8v2.8l0.8,2.9
				l0.7,2.8v2.8v2.8l2.8,2.8l1.4,2.8l-0.6,2.9l2.8,0.6l2.8,1.5l1.5,2.8l2.8,2.2l2.8,0.6l2.8-0.6l2.8,1.4l2.9,1.5l2.8,2.1l2.8,1.5
				l2.8,0.7l2.8,0.7l2.9,0.8l2.8,1.5l2.8,1.4l2.8,2.1l2.8,0.7l2.9,1.5h2.8h2.8l3.5,0.7h2.8h2.8l2.8-0.7l2.9,0.7l1.4,2.8l1.5,2.8
				l2.8,0.8l3.6-1.5l2.8-2.1h2.8l0.7,2.8v2.8l0.8,2.8v2.9l-2.1,2.8l-2.1,2.8l-1.4,2.8l-1.5,2.8l-1.4,2.9v2.8v2.8l-0.8,2.8l-1.5,2.8
				h-2.8l-2.1-2.8l-2.9-2.8l-2.8-0.7l-0.8,2.8v2.9l-0.6,2.8l-0.8,2.8v2.8l0.8,2.8l0.6,3.5v2.8l1.5,2.9l0.8,2.8l0.6,2.8v2.8v2.8v2.8
				v2.9l-0.6,2.8v2.8l-0.8,2.8v2.8v2.8l-0.7,2.9v2.8l-0.8,2.8v2.8l-0.6,2.8v2.9v2.8l0.6,2.8l0.8,2.8v2.8v3.6l1.5,5.7l0.6,2.8v2.8
				v2.8l1.5,3.5l0.8,2.8l0.7,2.8l-0.7,2.9l-2.2,2.8l-0.6,2.8l-2.2,2.8l-2.1,2.8v2.9l1.5,2.8v2.8l-0.8,2.8v2.8l1.4,2.8l1.5,2.9v2.8
				l-2.8,2.1h-2.8l-2.1,2.8l-2.1,2.9l-2.8,1.4l-2.9-0.8l-2.1-2.8l-2.8-1.4l-1.7-1.6v-2.8l-1.5-2.9l-2.8-2.8l-2.8-1.4l-2.8-1.5h-2.8
				l-2.9,0.7l-2.8,0.8h-3.5h-2.8h-3.6h-2.8l-2.8-0.8l-2.9-2.1l-1.4-2.8l-1.5-2.8l-2.8-2.8l-2.8-2.1l-2.8-1.5l-3.5,0.8l-2.9-0.8
				l-2.8-0.7l-3.6-0.8l-2.8-1.4l-2.8-0.7l-1.5-2.8l2.8-2.2l2.9-0.6l1.4-2.9l-1.4-2.8l-2.9-0.8l-2.8,1.5l-1.4-2.8l2.8-1.5l-0.7-2.8
				l-2.8,0.8l-2.8,1.5v-2.9l1.4-2.8l-2.8-2.1l-2.1-2.8l2.1-2.9l2.8-0.6l3.5,0.6h2.8l2.2-2.8v-2.8l0.7-3.5l0.7-2.8l0.7-2.8l2.2-2.8
				l2.8-0.8l2.8-0.7l2.8-2.1l1.5-2.9l-2.2-2.8l-2.8-2.1l-0.7-5.7v-3.6v-2.8v-2.8l-0.7-2.8l-2.1-2.8l-2.1-2.8l2.1-2.9l2.8-0.6
				l1.5-2.9l2.8-2.1l2.8-0.7h2.8l2.8-0.8h3.6l0.7-2.8l0.7-2.8v-2.8v-2.8l0.7-2.8l1.5-2.9l1.4-2.8l2.9-1.4h2.8l3.6,0.7h2.8l2.8-2.1
				l2-2.8l2.9-2.8l2.1-2.9l1.5-2.8l0.6-3.5l-3.4-1.4v-2.8v-2.9v-2.8l0.6-2.8v-2.8v-2.8l-0.6-2.9l-2.2-2.8l-2.8-0.8H677l-2.9-0.6
				l-2.8-0.8l-2.8-1.5l-2.8-2.1l-2.8-1.5l-3.5-1.4l-2.2-2.8l-2.8-1.5l-2.7-2.1l-2.1-2.9V493l-0.7-2.8v-2.8l-2.8-2.1l-2.9-1.5
				l-2.8-1.5l-0.8-2.8v-2.8l-2.8-2.8l-0.7-2.8l2.9-2.2v-2.8v-2.8l-1.5-2.8l-1.5-2.9v-2.8l-0.7-2.8l-2.1-2.8l-2.8-1.5l-0.8-2.8
				l0.8-2.8l0.7-2.8l2.8-2.1l2.8-2.1L639,436.6"/>
			<path class="st6" d="M723.4,707.4l1.5,2.8l2.8,2.1l2.1,2.8l2.2,2.8l2.8,1.5l1.4,2.8l2.1,2.8l-0.7,2.9l-2.8,0.7l-2.8-0.7l-1.5-2.9
				l-1.5-2.8l-1.4-2.8l-0.8-2.8l-0.7-2.8l-1.4-2.9L723.4,707.4"/>
			<path id="veracruz" class="st6 state" d="M901.3,920.6l2.8-2.8l4.3-1.5l2.2-2.8l0.6-2.8l-0.6-2.9l-2.2-2.8l-2.1-2.8l-2.2-2.8l-2.8-2.8l-2.8-2.1
				l-2.1-2.8l-2.8-2.8l-2.2-2.8l-2.8-2.8l-1.5-2.9v-2.8l-3.5-2.8h-2.8l-2.8,1.5l-2.8,0.6h-2.8l-2.9-0.6l-2.8-1.5l-0.8-2.8l-1.4-2.8
				l-1.5-2.8l-2.1-2.9l-0.8-2.8l-2.8-2.1l-2.8-1.5l-2.9-2.8h-2.8l-3.5-1.5l-3.6-1.4h-2.8h-2.8l-2.8-0.7l-2.9-0.8l-3.5-0.6H824
				l-2.8-0.8l-2.8,1.4l2.8,1.5l2.8,1.4l-2.1,2.9l-2.8-0.7l-3.5,0.7l-2.8-1.5l-0.8-2.8l-1.5-2.8l-1.5-2.9l-2.8-1.4l-2-2.8l-2.8-2.1
				l-2.2-3.6l-2.8-1.4l-2-2.8l-2.8-1.5l-2.2-2.8l-1.4-2.8l-0.7-2.9l-1.5-2.8l-2.1-2.8l-0.7-2.8v-4.3l-1.5-2.8l-1.4-2.8l-1.5-2.8
				l-1.4-2.9l-2.2-2.8l-1.4-2.8l-1.5-2.8l-1.5-2.8l-2.1-2.8l-2.1-2.9l-2.9-2.1l-2.8-2.8l-2.8-2.2l-2.8-2.1l-1.5-2.8l-2.1-2.8
				l-1.5-2.8l-2.8-2.9l-2.1-2.8l-2.9-2.8l-2.1-2.8l-2.9-2.7l2.9-0.1l-1.5-2.9l-1.4-2.8l-0.8-2.8v-2.8v-2.8l0.8-2.8l2.8-2.9l2.1-2.8
				l-0.6-2.8l-0.8-2.8l-2.8-2.2l-2.9-2.1l-2.8-2.8l-2.1-2.8l-2.2-2.8l-2-2.9l-0.8-2.8l-1.4-2.8l-0.7-2.8l-1.5-2.8l-2.1-0.8l-2.8,2.1
				h-2.8l-2.1,2.8l-2.1,2.9l-2.8,1.4l-2.9-0.8l-2.1-2.8l-2.8-1.4l-1.7-1.6l-1.5,2.8l-2,2.8l-0.8,2.8l-0.7,2.9v2.8v2.8l-0.8,2.9
				l3.2,0.1l0.7,2.8v2.9v2.8l0.8,2.8v2.8l0.6,2.8v2.9l0.8,2.8l2.8,1.4l2.9,2.2l2,2.8l0.8,2.8l0.7,2.8l1.4,2.8l-0.7,2.9l-2.1,2.8
				l-2.8,2.8l-2.8,1.5l-2.9,1.4l-2,3.5l-1.5,2.8l2.1,2.8h2.8h2.8h2.8l2.9-0.6l2.8-1.5l1.4-2.8l2.2-2.8v-2.8l2-2.9l2.2,1.5l1.4-2.8
				l2.8-2.8l2.9,2.1v2.8v2.8l0.6,2.8l3.6,2.2h2.9l1.4,2.8l-1.4,2.8l-2.9,0.7l-2.1,2.8v2.8v2.9l0.8,2.8l1.4,2.8l2.9,1.5l2.8,0.7
				l2.8-2.1l0.7-2.8l2.8-2.8l2.8,0.7l2.8,1.5l2.8,0.7l0.8,2.8l-0.8,2.8l-0.6,2.8l-1.5,3.6l-1.5,2.8l-1.4,2.9l-0.8,2.8l-0.7,2.8
				l-1.4,2.8l-0.8,2.8v2.9l0.8,2.8l3.5,2.8l2.8,1.5l2.8,0.6h2.8l2.8-0.6l1.5,2.8l-1.5,2.8l-2.8,0.7l-2.8,2.1l-1.5,6.3v2.8l-1.4,2.8
				l-0.7,2.9v2.8v2.8l1.5,2.8l2.8,1.5l2.8,0.8l2.1,2.8l1.5,2.8l2.8,0.7l2.8-1.5l2.9-2.8l2.8,0.8l2.1,2.8l2.1,2.8l1.4-2.8v-2.8
				l2.2-2.8l2.8,2.8l2.1,2.8l2.2,2.8l1.4,2.8l2.1,2.9l2.8,1.4l2.8,1.5l2.8,0.6l2.8,1.5h2.8h2.9h2.8l2.8,0.8l1.5,2.8l1.4,2.8v2.8v2.9
				l-2.1,2.8h-0.8v5.6l2.8,5l3.6,6.4h4.3l4.3-2.2l3.5-4.2l4.3-2.9l6.4-6.3l2.8,14.9l10.6,6.4l4.3,5.7h42.5L901.3,920.6"/>
			<path id="puebla" class="st5 state" d="M690,825.6l2.9-2.1l2.8-0.8l2.8,2.2l2.1,2.8l2.1,2.8l2.8,2l2.8,2.8l2.8,1.5l2.9-1.5l2.8-0.6h2.8l2.8-1.5
				l2.8-2.8l2.8-1.5l2.9-1.4V825l-2.9-2.2l-2.8-2.8l-2.8-1.5l-2.8-1.4l-2.8-2.8l-2.8-2.1l-2.9-0.8l-2.8-2.1l-2.8-2.8h-1.5l1.5-5.7
				l0.8-2.8l0.7-2.8l0.7-2.8l1.5-2.8l0.7-2.8l0.8-2.9l1.4-2.8l2.1-2.8l2.1-2.8l2.1-2.8l2.2-3.6V766v-2.8l-2.2-2.8l0.8-2l2.8-2.8
				l2.9,2.1v2.8v2.8l0.6,2.8l3.6,2.2h2.9l1.4,2.8l-1.4,2.8l-2.9,0.7l-2.1,2.8v2.8v2.9l0.8,2.8l1.4,2.8l2.9,1.5l2.8,0.7l2.8-2.1
				l0.7-2.8l2.8-2.8l2.8,0.7l2.8,1.5l2.8,0.7l0.8,2.8l-0.8,2.8l-0.6,2.8l-1.5,3.6l-1.5,2.8l-1.4,2.9l-0.8,2.8l-0.7,2.8l-1.4,2.8
				l-0.8,2.8v2.9l0.8,2.8l3.5,2.8l2.8,1.5l2.8,0.6h2.8l2.8-0.6l1.5,2.8l-1.5,2.8l-2.8,0.7l-2.8,2.1l-1.5,6.3v2.8l-1.4,2.8l-0.7,2.9
				v2.8v2.8l1.5,2.8l2.8,1.5l2.8,0.8l2.1,2.8l1.5,2.8l2.8,0.7l2.8-1.5l2.9-2.8l2.8,0.8l2.1,2.8l2.1,5l-1.5,2.8l-2.8,1.4l-2.8,2.2
				l-2.9,1.4l-2.8,2.1l-2.8,2.1l-2.8-1.5l-3.5,1.5l-2.8,1.5l-2.9,1.4l-2.8,2.1l-1.4,2.8l-2.9-0.7l-2.8-2.8l-1.4-2.8l-0.8-2.9
				l-0.7-2.8h-2.8l-2.8,2.1l-2.8,2.8l0.6,2.8l2.8,2.8l1.5,2.8l-2,2.9l-2.8,0.7l-2.9-0.7l-1.4-2.9l-2.8-1.4h-2.9H712h-2.8l-2.8-2.8
				l-2.8-2.1l-2.9-0.8h-2.8l-2.8,0.8l-3.6,1.5l-2.8-1.5l-2.8,2.1l-2.9,0.7l-2.8-0.7l-2.8-1.5l-2-2.8l-1.5-2.8l1.5-2.1h2.8l2.8-2.8
				l2.8-1.4l2.8-1.5l2.9-0.8v-2.8v-2.8v-2.8l0.6-2.9l-2.1-3.5v-2.8v-2.8l-1.5-2.1l2.1-2.9l0.8-2.8l0.6-2.8l0.8-2.8v-2.8l-0.8-2.8
				l-0.6-2.9l-0.8-2.8L690,825.6"/>
			<path id="guerrero" class="st6 state" d="M709.2,889.4l-2.8-2.8l-2.8-2.1l-2.9-0.8h-2.8l-2.8,0.8l-3.6,1.5l-2.8-1.5l-2.8,2.1l-2.9,0.7l-2.8-0.7
				l-2.8-1.5l-2.1-2.8l-1.5-2.8l1.5-2.1l-2.2-2.8l-2.8-1.4l-2.8-2.2l-2.8-1.4l-2.9-2.9h-2.8l-2.8-1.4l-1.5-2.8l-0.6-2.9l0.6-2
				l-3.4,1.5l-2.9-0.8l-2.8-0.7l-2.8,2l-1.5,2.9l-2.1,2.8h-2.8l-3.5-0.7h-2.8l-2.9,2.8l-2.8,2.8l-3.6,0.7l-2.8-0.7l-1.5-2.8
				l-1.4-2.8l-1.5-2.8l-1.4-2.8v-2.9l-0.7-2.1l-2.8,1.5l-2.9,2.8v3.6l0.7,2.8l1.5,2.8l0.8,2.8l-1.5,2.9h-2.8h-2.8h-2.9l-2.8-2.2H593
				l-2.8-2.1l-2.8-1.5l-2.9-0.8l-2.8,1.5l-2.8-0.7l-2.8-0.8h-2.8l-2.8,0.8l-2.9,2.1l-2.8,0.7l-2.8-2.8l-2.8-1.4l-2.8-0.8l-2.9,0.8
				h-2.8l-2.8,0.6l-1.5,2.9v2.8l1.5,2.8l0.7,2.8l-1.5,2.8l-2.8,1.5l-2.8,1.4l-2.8,0.8v2.8v2.9v2.8l-0.2,1.9l2.3,0.2l2.8-1.4l2.8-0.7
				l2.9,1.4l2.8,2.9l2.8,2.1l1.5,2.8l2.1,2.8l2.8,2.2l2.8,2.8l2.8,2.1l2.9,2.8l2.8,1.5l2.8,1.5l2.8,2.1l2.8,2.8l2.2,2.8l2.8,2.1
				l2.8,1.4l2.8,1.5l2.9,0.8l2.8,0.6l2.8,1.5l3.5,0.8h2.8l2.8,0.7l2.9,1.4l2.8,1.5l2.8,1.4l2.8,0.8l3.6,1.5l2.8,2.1l2.9,1.5l3.5,0.8
				l2.1,2.8l2.8,2.1l3.5,1.5h2.8h2.8h2.9h2.8l2.8,0.8h3.6l2.8,0.6l2.8,1.5l2.9,1.4l2.8,0.8l2.8,0.7h2.8l2.8,1.5l2.9,0.8l3.5,0.6
				l2.8,0.8l2.8,2.8l1.5,2.8l2.8,2.1l2.8,0.8l3.6,0.6l2.1-2.8l1.5-2.8l1.5-2.8l0.7-2.8l2.9-1.5l2.8-2.8l2.8-1.5l2.1-2.8l1.5-2.8
				v-2.8l-1.5-2.8l1.5-2.9l-2.1-2.8l-2.2-2.8l-2.8-2.1l-2.8-2.2l-1.5-2.8l-1.4-2.8l-1.5-2.8v-2.8l-2.8-2.9l-0.7-2.8l0.7-2.8l1.4-2.8
				v-2.8v-2.9l-0.6-2.8l0.6-2.8h2.9l2.8-0.7l0.8-2.8L709.2,889.4"/>
			<path id="oaxaca" class="st4 state" d="M884.3,966.6h2.8h2.8l2.9,0.7l2.1-2.8l0.7-2.8l-2.1-2.8l-2.9-2.9v-2.8l0.7-2.8v-2.8v-2.8v-2.8l2.2-2.9
				l2.8-2.8l1.4-2.8l0.7-2.8l0.8-2.8v-2.8l0.7-2.9v-0.6h-42.5l-4.3-5.7l-10.6-6.4l-2.8-14.9l-6.4,6.3l-4.3,2.9l-3.5,4.2l-4.3,2.2
				h-4.3l-3.6-6.4l-2.8-5V893h0.8l2.1-2.8v-2.9v-2.8l-1.4-2.8l-1.5-2.8l-2.8-0.8h-2.8H802h-2.8l-2.8-1.5l-2.8-0.6l-2.8-1.5l-2.8-1.4
				l-2.1-2.9l-1.4-2.8l-2.2-2.8l-2.1-2.8l-2.8-2.8l-2.2,2.8v2.8l-1.4,2.8v2.1l-1.5,2.8l-2.8,1.4l-2.8,2.2l-2.9,1.4l-2.8,2.1
				l-2.8,2.1l-2.8-1.5l-3.5,1.5l-2.8,1.5l-2.9,1.4l-2.8,2.1l-1.4,2.8l-2.9-0.7l-2.8-2.8l-1.4-2.8l-0.8-2.9l-0.7-2.8h-2.8l-2.8,2.1
				l-2.8,2.8l0.6,2.8l2.8,2.8l1.5,2.8l-2.1,2.9l-2.8,0.7l-2.9-0.7l-1.4-2.9l-2.8-1.4h-2.9H712h-2.8l1.5,2.1l-0.8,2.8l-2.8,0.7h-2.9
				l-0.6,2.8l0.6,2.8v2.9v2.8l-1.4,2.8l-0.7,2.8l0.7,2.8l2.8,2.9v2.8l1.5,2.8l1.4,2.8l1.5,2.8l2.8,2.2l2.8,2l2.2,2.8l2.1,2.8
				l-1.5,2.9l1.5,2.8v2.8l-1.5,2.8l-2.1,2.8l-2.8,1.5l-2.8,2.8l-2.9,1.5l-0.7,2.8l-1.5,2.8l-1.5,2.8l-1.4,1.5l2.1,2.8l2.8,1.5
				l2.9,0.7l2.8,0.7l2.8,0.8l3.5,1.5l2.8,1.4l2.8,1.5l2.8,1.4l2.9,1.5h2.8h2.8h2.8l2.8,2.8l2.9,0.7h2.8h2.8h2.8h2.8l2.9,1.4l2.8,0.8
				l2.8,1.5l2.8,2.1l2.8,1.5l2.9,0.8h2.8l2.8,0.6l2.8,1.5l2.8,0.8l3.6,0.7h2.9h2.8l2.8-0.7l3.5-2.2l2.8-1.4l2.8-2.1l2.8-1.4l2.9-0.8
				l2.8-2.1l2.8-0.8l2.8-1.5l2.8-2.8l2.9-1.4l2.8-0.7l2.8-1.5h2.8h2.8l1.5-2.8l1.5-2.8l2.8-1.5l2.8-2.1h2.8l2.8-0.7l3.6-0.8l2.9,0.8
				h3.5v-2.8l-2.9-0.8l-2.8-1.5v-2.8l1.5-2.8h2.8l2.8,1.5v2.8l0.8,2.8l2.8-1.5h2.8l3.5-2.1l2.9-0.8l1.4,3.6l-3.5,1.5h-2.8l1.5,2.8
				l2.8,0.7h2.8l2.8,0.8l2.8,1.4l2.9,1.5l2.8,0.7l2.8,0.7l2.8,0.7h2.8l-2.8-2.8l-2.8-0.7l-2.8-1.4l-2.8-0.8l-2.9-0.7l-2.8-0.8
				L884.3,966.6"/>
			<path id="tabasco" class="st6 state" d="M909.1,904.4l2.8-0.8l2.8-0.7l2.9-1.5l0.6-2.8l0.8-2.8l-1.4-2.8v-2.8v-2.9l0.6-2.8l2.2-2.8l2.8-0.8h2.8
				l2.8,1.5l2.9,2.1l1.4,2.8v3.5l0.7,2.9v2.8l0.8,2.8l2,2.8l2.8,0.8l2.9,0.7l3.6,1.4l2.8,1.5l2.8-1.5l1.5-2.8l2.1-2.8l2.1-2.8
				l2.1-2.8l-0.7-2.9l0.7-2.8l2.8-2l2.8-2.8l1.5-2.9l2.8-1.4h3.6h5.6l2.8,1.4l2.9,1.5l2.8,2.8l2.8,2.8l2.8,2.9l2.8,2.1l0.7,2.8
				l2.2,2.8l2.8,0.8l2.8,0.7l2.8,2.1v2.9l0.7,2.8l19.2-2.2l-2.2-26.9l-2-1.5l-0.8-4.2l-18.5,2.8l-9.1,0.8l-2.8-0.8l-2.9-1.5
				l-2.8-1.4l-4.3-1.5l-2.8-0.7l-2.8-1.4l-2.8-2.2l-2.8-1.4l-1.5-2.8l-0.8-2.9l-2.8-1.4l-0.7-2.8l-1.4-2.9l-2.2-2.8l-3.5-1.4
				l-2.1-2.9l-2.8-0.6l-3.5,3.5l-2.8,2.1l-2.9,2.8l-2.8,2.1h-2.8h-2.8l-2.8,0.7l-2.9,0.7h-3.6l-3.5,0.8l-2.8,0.7h-2.8l-2.8,0.8
				l-2.8,0.6h-2.9l-3.6,0.8l-0.6,2.8l2.8-1.4l2.8,0.7l-2.1,2.8l-2.9,1.4l-2.1,2.9l-2.8,1.4l-2.8,0.8l-2.8-2.1l-2.9,2.8h-2.8
				l-2.8,1.4l-1.5,0.8l3.5,2.8v2.8l1.5,2.9l2.8,2.8l2.2,2.8l2.8,2.8l2.1,2.8l2.8,2.1l2.8,2.8l2.2,2.8l2.1,2.8L909.1,904.4"/>
			<path id="chiapas" class="st5 state" d="M1007.6,907.2l-0.7-2.8v-2.9l-2.8-2.1l-2.8-0.7l-2.8-0.8l-2.2-2.8l-0.7-2.8l-2.8-2.1l-2.8-2.9l-2.8-2.8
				l-2.8-2.8l-2.9-1.5l-2.8-1.4h-5.6h-3.6l-2.8,1.4l-1.5,2.9l-2.8,2.8l-2.8,2l-0.7,2.8l0.7,2.9l-2.1,2.8l-2.1,2.8l-2,2.8l-1.5,2.8
				l-2.8,1.5L946,905l-3.6-1.4l-2.9-0.7l-2.8-0.8l-2.1-2.8l-0.8-2.8v-2.8l-0.7-2.9v-3.5l-1.4-2.8l-2.9-2.1l-2.8-1.5h-2.8l-2.8,0.8
				l-2.2,2.8l-0.6,2.8v2.9v2.8l1.4,2.8l-0.8,2.8l-0.6,2.8l-2.9,1.5l-2.8,0.7l-2.8,0.8l-0.8,0.6l2.2,2.8l0.6,2.9l-0.6,2.8l-2.2,2.8
				l-4.3,1.5l-2.8,2.8l-1.4,0.8v0.6l-0.7,2.9v2.8l-0.8,2.8l-0.7,2.8l-1.4,2.8l-2.8,2.8l-2.2,2.9v2.8v2.8v2.8l-0.7,2.8v2.8l2.9,2.9
				l2,2.8l-0.7,2.8l-2.1,2.8l1.5,0.9l2.5,1l6.7,3.1l2.8,2.8l-2.8-1.5h-2.9l3.5,2.9l2.9,1.4l2.8,2.1l2.8,2.1l2.8,1.5l-2.1-2.9
				l-2.2-2.8l-2.1-2.8l2.8,1.5l2.8,1.4l2.9,1.5l2.8,2.8l2.8,2l2.8,2.8l2.8,2.9l2.9,2.1l2.1,2.8l2.8,2.8l2.2,2.9l2,2.8l1.5,2.8
				l2.8,2.1l2.8,0.8l2.8,2.1l2.8,2.2l3.6,2l2.9,0.8h2.8l2.8-2.1l2.8-2.1l2.8-2.8l2.9-2.8l2.8-2.8l2.1-2.8l0.8-3.6l18.5-34.7l56-5.7
				l1.4-2.8l-0.6-2.8l-0.8-2.8l0.8-2.8l0.6-2.9l-2.8-0.7l-2.8-1.5l-2.8-1.5l-0.7-2.8l-1.5-2.8l-2.8-2.8l-2.1-2.8l-2.9-1.5l-2.8-1.4
				l-3.5-2.1l-1.4-2.8l-2.8,2.1l-3.6-2.8l-2.9-2l-2.8-2.2l-2.8-2.8l-2.8-2.8l-2.8-2H1007.6"/>
			<path class="st6" d="M994.9,833.4l-2.9,2.1l-2.8,2.2l-2.8,0.7l-2.8,2.1l2.8,0.7l2.8-0.7l2.8-0.8l2.9-2l2.1-2.8L994.9,833.4"/>
			<path class="st6" d="M168.3,345.9h-2.8l-2.9,1.5l-0.7,2.8l-0.7,2.8v2.8l-0.8,2.9v2.8l0.8,2.7l2.8,2.1l2.8,1.5l2.1-2.8l0.7-2.9
				v-2.8l1.5-2.8v-2.8l-0.8-2.8l1.5-2.8L168.3,345.9"/>
			<path id="yucatan" class="st5 state" d="M1148.7,688.1l-2.8-0.7l-2.9-0.8l-2.8-1.4l-2.8-1.5l-2.8-0.6l-5-0.8l-2.8,2.1l-2.8,1.5l-2.8,1.4l-2.9,0.7
				l-2.8,0.8l-3.5,0.7l-3.6,0.7l-2.8,2.9l-2.8,2.8l-2.8,1.4l-2.8,1.5l-2.9,0.7h-2.8l-2.8,0.8l-2.8,0.6l-2.8,0.8l-2.9,0.7l-2.8,0.8
				l-2.8,0.7l-2.8,1.4l-2.8,0.8l-2.9,1.5l-2.8,0.6l-2.8,1.5l-2.8,0.8l-2.8,0.6l-2.9,1.5l-2.8,2.2l-2.8,2l-2.8,2.1l-2.8,1.5l-2.9,2.1
				l-1.4,2.8l-1.5,2.9l-0.6,2.8l-0.8,2.8l2.1,1.5l0.7,3.6v1.4l1.4,3.5v1.5l2.9,0.7l2.1,0.7l1.5,2.2l3.5,0.6h3.6l44.6,49.6l51-68.7
				l8.5-17.8l-2.8-23.3L1148.7,688.1"/>
			<path class="st6" d="M994.9,833.4l-2.9,2.1l-2.8,2.2l-2.8,0.7l-2.8,2.1l2.8,0.7l2.8-0.7l2.8-0.8l2.9-2l2.1-2.8L994.9,833.4"/>
			<path id="campeche" class="st4 state" d="M1024.6,878l-2.1-1.5l-0.8-4.2l-18.5,2.8l-9.1,0.8l-2.8-0.8l-2.9-1.5l-2.8-1.4l-4.3-1.5l-2.8-0.7l-2.8-1.4
				l-2.8-2.2l-2.8-1.4l-1.5-2.8l-0.8-2.9l-2.8-1.4l-0.7-2.8l-1.4-2.9l-2.2-2.8l-3.5-1.4l-2.1-2.9l-2.8-0.6l5.6-2.2l2.8-0.6l2.8-0.8
				h2.9h2.8l3.6-1.5l2.8-1.4h2.8l2.1,2.8L980,844l2.8,5l1.5,2.8h2.8l2.1-2.8h2.8l2.9,0.6l1.4-2.8l2.8-2.1l2.9-1.5l2.8-0.8l3.6-0.6
				l-0.8-2.9l0.8-2.8l-1.5-2.8l-2.8-0.8l-2.8,0.8h-2.8l1.4-2.8l2.8-0.8l2.9-2l2-2.8l2.8-2.2l2.8-2.8l2.9-2.8l2.8-2.1l2.8-2.1
				l2.1-2.8l2.9-2.8l0.6-2.9v-2.8l0.8-5.6V793l-0.8-2.8v-2.9l2.2-2.8l2.1-2.8v-2.8l1.5-2.8l1.4-2.9v-3.4v-2.9V764v-2.8l-1.4-2.8
				l0.8-2.8l-2.2-2.9v-2.8l0.8-2.8l1.5-2.8l-0.8-2.8v-2.8l2.1-3.6l0.7,3.6v1.4l1.4,3.5v1.5l2.9,0.7l2.1,0.7l1.5,2.2l3.5,0.6h3.6
				l44.6,49.6l7.9,70.9l-77.3,9.2L1024.6,878"/>
			<path id="quintana-roo" class="st6 state" d="M1095.5,798.7l51-68.7l8.5-17.8l-2.8-23.3h2.1l2.8,0.7l2.9,0.7h2.8l2.8-0.7l2.1-2.9l1.5-2.8l-2.8-1.4
				l-2.8,0.8l-2.9,0.6l-2.8,0.8l1.5-2.8l2.8-0.8l2.8-0.7l2.8-0.7h2.9l2.8,2.1l0.8,2.8l2.1,3.5l-0.7,2.8l2.1,2.8l1.4,2.9l0.8,2.8v2.8
				v2.8v2.8l-0.8,4.3v2.8l-0.7,2.8l-1.4,2.9l-2.2,2.8l-2,2.8l-2.1,2.8l-2.1,2.8l-1.4,2.9l-1.5,2.8l-0.8,2.8l-0.7,2.8l-2.8,4.3
				l-0.8,2.8l0.8,2.8l0.7,2.8l0.8,2.9v2.8l-3.6,5.6l-2.8,2.8l-0.7,2.8v2.9l2.8,2.1l2.8-1.5l2.8-0.7l1.5,2.8v2.8l-2.1,2.8l-2.9,2.2
				l-2.8,1.4l-1.4,2.8l1.4,2.9h2.8l2.9-1.5l0.7,2.8l-0.7,2.8v2.8l-0.7,2.9v2.8l-0.8,2.8l-0.7,2.8l-0.8,2.8v2.9l-0.6,2.8l0.6,3.5v2.8
				l0.8,2.8v2.8l-1.4,2.8l-0.8,2.9l-0.7,2.8l-2.1,2.8l-2.9-1.5l-0.6-2.8l-0.8-2.8l-2.1-2.8l-2.8-1.5l-2.8-2v-2.8l0.7-2.8v-2.9
				l-0.7-2.8l-0.8-2.8l-1.4-2.8l-2.9,1.4l-0.6,2.9l-0.8,2.8l-1.5,2.8l-0.6,2.8v2.8l-0.8,2.8l-2.9,1.5l-2.8,0.7l-2.8,0.8l-2.8,1.4
				l-2.1,2.8l-1.5,2.9l-0.8,2.8l-0.7,2.8l-0.8,2.8l-0.6,2.8l-1.5,2.8l-1.4,2.9l-0.8,2.8l-2.8,0.7l-2.1-2.9l-3.6-1.4h-2.8
				L1095.5,798.7"/>
			<path class="st6" d="M1153.6,860.4v-2.8l0.8-2.8l2.1-2.8v-2.8l-0.2-2.6l-2,2.6l-0.8,2.8l-1.4,2.8l-1.5,2.8L1153.6,860.4"/>
			<path class="st6" d="M1187,726.4l-2.8-0.7l-2.8,1.5l-2.2,2.8l-0.7,2.8l-0.7,2.8l1.4,2.9l2.8,0.6l1.5-2.8l1.5-2.8l1.4-2.8
				L1187,726.4"/>
			<path class="st6" d="M123,325.3l-1.5,2.1v2.6l1,2.5l0.4,2.5l2.5,2.1l2.4,2.1l1,2.8l1.9,2.5l1,2.5l0.3,2.5l2.8,1v-3.2v-2.5v-2.5
				l-1.8-2.5l-1.7-2.5l-0.7-2.5l-1.1-2.8l-0.8-2.2l-1.6-1.3l-2.6-1.5L123,325.3"/>
			<path id="baja-california-norte" class="st6 state" d="M144.2,399.1L93,393.3l1.5-2.8l2.1-2.8v-2.8V382l1.5-2.9v-2.8v-2.8v-2.8v-2.8l-2.1-2.8l-2.8-2.1l-2.8-2.1
				l-2.1-2.8l-1.5-2.9l-1.5-2.8l-1.4-2.8l-1.5-2.8l-0.8-2.8l-0.7-2.9l-2.9-2.8l-2.8-2.8l-2.1-4.3l-2.2-2.8l-2.8-2.1l-2.8-1.5
				l-2.8-2.8l-2.8-2l-2.9-2.9l-2.8-1.4l-2.8-2.8l-2.8-2.2l-1.5-2.8l-2-2.8v-2.8l-0.8-5.7v-2.8v-2.8v-2.8v-2.8v-2.9l-0.7-2.8
				l-1.4-2.8l-0.8-2.8l-0.7-2.8l-2.8-2.8l-0.7-2.9l0.7-2.8l0.8-2.8l2.7,0.8v-2.8l-2.7-2.2l0.6-2.7v-2.8l-2-2.8l-2.8,1.4l-2.2-2.8
				l-0.7-2.8v-2.8l1.4-2.9v-2.9l-0.7-2.8l-1.4-2.8l-2.2-2.8l-1.4-2.8l-2.1-2.8l-2.9-2.9l-0.8-2.8v-2.8l0.8-2.8l2.9-0.7v-2.8V202
				l-2.9-2.8l-2.1-2.9l-0.7-2.8l-0.8-2.8L18,187l-0.8-2.8l-1.5-2.8l-0.7-2.9l-1.4-2.8l-0.7-2.8v-2.7l83.5,5l2.2,2.8v2.8l-2.2,2.8
				l-2.1,2.8l-2.8,0.7l-3.5,3.6l-2.2,2.8v2.8l-0.7,2.9v2.8l-2.1,2.8l-1.5,2.8l2.2,2.8l2.8,2.1l1.5,2.8l0.6,2.8l-0.6,2.8l-0.8,2.8
				l-2.1,2.8l-1.4,2.9l1.4,2.8v2.8l-0.7,2.8l-0.7,2.8v2.9l0.7,2.8l0.7,2.8l2.9,2.8l0.6,3.6l-1.4,2.8l-1.5,2.8v2.9l1.5,2.8l0.8,2.8
				l-0.8,7.8l-0.7,2.8l-0.8,2.8v2.8l0.8,2.8v2.9v2.9l2.1,2.8l0.8,2.8v2.8l2.1,2.9l2.8,2.8l2.8,2.1l2.8,2.2l2.1,2.8l2.2,2.8l2,2.7
				l2.8,2.8l1.5,2.8l1.5,2.9l2.1,2.8l2.8,1.4l0.7,2.8v2.9l0.8,2.8l0.7,2.8v2.8v2.8l1.4,2.9l1.5-2.9h2.8l0.8,2.9v2.8l1.4,2.8l2.9-1.5
				l2.8,1.5v2.8v2.8l0.7,2.8v2.9l0.7,2.8l2.1,2.8l2.1,2.8h5l0.8,2.8v2.9v2.8v3.6v2.8l0.6,2.8L144.2,399.1"/>
			<path id="baja-california-sur" class="st5 state" d="M144.7,403.2l-0.6,3.5v2.9l1.4,2.8l2.8,0.8l8.5,9.2l1.5,2.8v2.7l0.6,2.8l1.5,2.9v2.8l0.8,2.8l2.1,2.8
				l2.8,1.5l3.6,1.4v2.8h-2.8v2.9l2.1,2.8l1.4,2.8l0.8,2.8l-2.1,2.8l-0.7,2.9l2.1,2.8l2.2,2.8l2.8,2.1v-2.8V467l-0.8-2.8l-1.5-2.8
				v-2.9l1.5-2.8l2.8,1.5l1.5,2.8l1.5,2.8l2.1,2.8l0.8,2.9l1.4,2.8l1.5,2.8l2.8,2.1v2.8l-0.8,2.9l-2.1,2.8l-0.8,2.8l0.8,2.8l0.7,2.8
				l0.7,2.9l-1.4,2.8l0.7,2.8l2.1,2.8v2.8l0.7,2.8l2.1,2.9v2.8l1.5,2.8l2.8,2.1l2.8,2.1v2.8l0.7,2.8v2.9l0.8,2.9v2.8l0.6,2.8
				l2.2,2.8l4.2,8.5l2.1,2.8l0.7,2.8l-1.5,2.8l-2,2.8l-2.1,4.3l1.4,2.8l0.7,2.8l0.7,2.9v2.8l0.7,2.8l2.9,2.8l2.1,2.8l2.8,1.5
				l2.8,2.1h3.6l0.7-2.8v-2.8l2.2-2.8l2.8,2.1l1.4,2.8l1.5,2.9l1.5,2.8l0.6,2.8l0.8,2.8l2.1,2.8l2.8,2.1l2.8,1.4l2.8,2.8l0.8,2.9
				L244,613v2.8l2.8,2.1l3.6,1.5l2.9,0.7l1.4,2.8v2.8v2.8v2.8v2.9l-2.1,2.8l-1.5,2.8l-1.4,2.8l-2.9,1.5l-2.8,2.1l-1.4,3.5l-2.9,0.7
				l-2.8,1.4l-2.8,2.2h-2.8l-2.1-2.8l-2.1-2.9v-2.8l-2.1-2.8l-0.8-2.8v-3.5l-0.7-3.6l-0.8-2.8l-1.4-2.8v-2.9l-0.7-2.8l-5-5.6
				l-4.9-2.2l-2.2-2.8l-2.7-2l-2.1-2.8l-2.1-2.8l-2.1-2.9l-2-2.8l-1.5-2.8l-2.8-2.8l-1.5-2.8l-2.8-2.2l-2.8-2.1l-2.8-2.1l-3.6-2.2
				l-1.5-2.8l-2.8-2.8l-2.2-2.8l-2.8-2.9l-2.8-2.1l-1.5-2.8l-3.5-2.8l-0.7-2.8l-1.5-2.9l-2.8-0.7l-2.8-2.1v-2.8l0.7-2.8l-2.8-1.5
				l-0.8,2.8v2.9v2.8v2.8l-2.1,2.8l-2.8-2.1l-0.8-2.8l-0.7-2.9l0.7-2.8l2.1-2.8v-2.8l-0.7-2.8l2.8-2.9l2.1-2.8l2.1-2.8v-2.8v-2.8
				l0.7-2.8l2.9-2.2l-0.8-2.8l0.8-2.8l0.6-2.8l1.5-2.9v-2.8l-1.5-2.8v-2.8l-0.6-2.8l-1.5-2.8l-0.8-2.9l-2.1-2.8l-2.2-2.8l-2.8-2
				l-3.5-0.8l-2.8-0.7l-2.8-2.1l-2.8-2.9l-2.9-2.1l-1.4-2.8l-2.2-2.8l-2.1-2.8l-3.6-3.6l-1.5-2.9l-1.4-2.8v-2.8l2.1-2.8l1.5-2.8
				l0.7-2.9l-2.9,0.8l-1.4,2.8l-2.1,2.9l-2.8,0.6l-2.8-2.1l-0.8-2.8l-0.7-2.8l-2.8,0.6l0.7,2.9v2.8l-1.5,2.8l-2.8,0.8l-2.8-0.8
				l-2.8-2.8l-0.7-2.8l-0.8-2.9l-1.4-2.8l-2.7-2.1l-2.9-0.8l-2.8-1.4l-0.8-2.9l-2.1-2.8l-3.6-2.1l-2.8-0.8l-2.8-1.5l-2.9-2.8
				l-0.7-2.8l1.4-2.8l-2.1-2.8l-2.2-2.9l-2.8-2.1l-2.8-2.8l-2-2.8l-2.9-2.8l-2.8-2.9l-2.1-2.8l0.8-2.8l7.7,0.7l2.9,2.1l2.8,0.7h2.8
				h2.8h3.6h2.8l2.9-1.5l2.8-1.4l2.8-2.1l2.8-2.8l51.2,5.8L144.7,403.2"/>
		</g>
	</g>
</g>
</svg>
